<svg width="147" height="44" viewBox="0 0 147 44" fill="none" xmlns="http://www.w3.org/2000/svg">
<path d="M3.008 31V8.6H6.432L16.224 24.952H14.432L24.064 8.6H27.488L27.52 31H23.584L23.552 14.776H24.384L16.192 28.44H14.336L6.016 14.776H6.976V31H3.008ZM37.2825 25.72L37.0585 20.792L48.8025 8.6H53.4745L43.7145 18.968L41.4105 21.496L37.2825 25.72ZM33.5705 31V8.6H37.7305V31H33.5705ZM49.1865 31L40.6105 20.792L43.3625 17.752L54.0505 31H49.1865ZM63.3583 31.32C61.6089 31.32 59.9343 31.0747 58.3343 30.584C56.7343 30.072 55.4649 29.4213 54.5263 28.632L55.9663 25.4C56.8623 26.104 57.9716 26.6907 59.2943 27.16C60.6169 27.6293 61.9716 27.864 63.3583 27.864C64.5316 27.864 65.4809 27.736 66.2063 27.48C66.9316 27.224 67.4649 26.8827 67.8063 26.456C68.1476 26.008 68.3183 25.5067 68.3183 24.952C68.3183 24.2693 68.0729 23.7253 67.5823 23.32C67.0916 22.8933 66.4516 22.5627 65.6623 22.328C64.8943 22.072 64.0303 21.8373 63.0703 21.624C62.1316 21.4107 61.1823 21.1653 60.2223 20.888C59.2836 20.5893 58.4196 20.216 57.6302 19.768C56.8623 19.2987 56.2329 18.68 55.7423 17.912C55.2516 17.144 55.0063 16.1627 55.0063 14.968C55.0063 13.752 55.3263 12.6427 55.9663 11.64C56.6276 10.616 57.6196 9.80533 58.9423 9.208C60.2863 8.58933 61.9823 8.28 64.0303 8.28C65.3743 8.28 66.7076 8.45067 68.0303 8.792C69.3529 9.13333 70.5049 9.624 71.4862 10.264L70.1743 13.496C69.1716 12.8987 68.1369 12.4613 67.0703 12.184C66.0036 11.8853 64.9796 11.736 63.9983 11.736C62.8463 11.736 61.9076 11.8747 61.1823 12.152C60.4783 12.4293 59.9556 12.792 59.6143 13.24C59.2943 13.688 59.1343 14.2 59.1343 14.776C59.1343 15.4587 59.3689 16.0133 59.8383 16.44C60.3289 16.8453 60.9583 17.1653 61.7263 17.4C62.5156 17.6347 63.3903 17.8693 64.3503 18.104C65.3103 18.3173 66.2596 18.5627 67.1983 18.84C68.1583 19.1173 69.0223 19.48 69.7903 19.928C70.5796 20.376 71.2089 20.984 71.6783 21.752C72.1689 22.52 72.4143 23.4907 72.4143 24.664C72.4143 25.8587 72.0836 26.968 71.4223 27.992C70.7823 28.9947 69.7903 29.8053 68.4463 30.424C67.1023 31.0213 65.4063 31.32 63.3583 31.32Z" fill="white"/>
<path d="M79.896 27.08C79.064 27.08 78.2747 26.9413 77.528 26.664C76.792 26.376 76.2213 26.008 75.816 25.56L76.184 24.952C76.568 25.3467 77.0907 25.6827 77.752 25.96C78.424 26.2267 79.1333 26.36 79.88 26.36C80.6267 26.36 81.2347 26.264 81.704 26.072C82.184 25.8693 82.536 25.6027 82.76 25.272C82.9947 24.9413 83.112 24.5733 83.112 24.168C83.112 23.688 82.984 23.304 82.728 23.016C82.472 22.728 82.136 22.4987 81.72 22.328C81.304 22.1573 80.8507 22.0133 80.36 21.896C79.8693 21.7787 79.3733 21.656 78.872 21.528C78.3707 21.3893 77.912 21.2133 77.496 21C77.08 20.7867 76.744 20.4987 76.488 20.136C76.2427 19.7627 76.12 19.2827 76.12 18.696C76.12 18.1627 76.2587 17.672 76.536 17.224C76.8133 16.776 77.2453 16.4133 77.832 16.136C78.4187 15.8587 79.1707 15.72 80.088 15.72C80.7067 15.72 81.3147 15.8107 81.912 15.992C82.52 16.1733 83.0373 16.4187 83.464 16.728L83.16 17.384C82.6907 17.064 82.184 16.8293 81.64 16.68C81.1067 16.52 80.5893 16.44 80.088 16.44C79.3733 16.44 78.7813 16.5413 78.312 16.744C77.8427 16.9467 77.496 17.2187 77.272 17.56C77.048 17.8907 76.936 18.264 76.936 18.68C76.936 19.16 77.0587 19.544 77.304 19.832C77.56 20.12 77.896 20.3493 78.312 20.52C78.728 20.6907 79.1867 20.8347 79.688 20.952C80.1893 21.0693 80.6853 21.1973 81.176 21.336C81.6667 21.464 82.12 21.6347 82.536 21.848C82.952 22.0613 83.288 22.3493 83.544 22.712C83.8 23.0747 83.928 23.544 83.928 24.12C83.928 24.6427 83.784 25.1333 83.496 25.592C83.208 26.04 82.7653 26.4027 82.168 26.68C81.5813 26.9467 80.824 27.08 79.896 27.08ZM86.446 27V18.648H87.246V27H86.446ZM86.846 16.616C86.6647 16.616 86.51 16.552 86.382 16.424C86.254 16.296 86.19 16.1467 86.19 15.976C86.19 15.7947 86.254 15.64 86.382 15.512C86.51 15.384 86.6647 15.32 86.846 15.32C87.038 15.32 87.1927 15.384 87.31 15.512C87.438 15.6293 87.502 15.7787 87.502 15.96C87.502 16.1413 87.438 16.296 87.31 16.424C87.1927 16.552 87.038 16.616 86.846 16.616ZM92.7299 27.064C92.0365 27.064 91.3859 26.9627 90.7779 26.76C90.1805 26.5573 89.7165 26.3013 89.3859 25.992L89.7539 25.352C90.0739 25.6293 90.5005 25.8693 91.0339 26.072C91.5672 26.264 92.1432 26.36 92.7619 26.36C93.6365 26.36 94.2659 26.216 94.6499 25.928C95.0339 25.64 95.2259 25.2613 95.2259 24.792C95.2259 24.4507 95.1245 24.184 94.9219 23.992C94.7299 23.7893 94.4685 23.6347 94.1379 23.528C93.8072 23.4213 93.4445 23.336 93.0499 23.272C92.6552 23.1973 92.2605 23.1173 91.8659 23.032C91.4712 22.9467 91.1085 22.824 90.7779 22.664C90.4472 22.504 90.1805 22.2853 89.9779 22.008C89.7859 21.72 89.6899 21.3413 89.6899 20.872C89.6899 20.4453 89.8072 20.0613 90.0419 19.72C90.2765 19.3787 90.6285 19.1067 91.0979 18.904C91.5672 18.6907 92.1539 18.584 92.8579 18.584C93.3805 18.584 93.9032 18.6587 94.4259 18.808C94.9592 18.9573 95.3912 19.1547 95.7219 19.4L95.3539 20.04C95.0019 19.7733 94.6072 19.5813 94.1699 19.464C93.7325 19.3467 93.2899 19.288 92.8419 19.288C92.0312 19.288 91.4339 19.4373 91.0499 19.736C90.6765 20.0347 90.4899 20.408 90.4899 20.856C90.4899 21.208 90.5859 21.4907 90.7779 21.704C90.9805 21.9067 91.2472 22.0667 91.5779 22.184C91.9085 22.2907 92.2712 22.3813 92.6659 22.456C93.0605 22.52 93.4552 22.5947 93.8499 22.68C94.2445 22.7653 94.6072 22.888 94.9379 23.048C95.2685 23.1973 95.5299 23.4107 95.7219 23.688C95.9245 23.9547 96.0259 24.3173 96.0259 24.776C96.0259 25.2347 95.8979 25.6347 95.6419 25.976C95.3965 26.3173 95.0285 26.584 94.5379 26.776C94.0472 26.968 93.4445 27.064 92.7299 27.064ZM100.691 27.064C99.9545 27.064 99.3892 26.8613 98.9945 26.456C98.6105 26.0507 98.4185 25.496 98.4185 24.792V16.824H99.2185V24.712C99.2185 25.2453 99.3518 25.656 99.6185 25.944C99.8852 26.232 100.269 26.376 100.771 26.376C101.293 26.376 101.725 26.2213 102.067 25.912L102.403 26.472C102.189 26.6747 101.928 26.824 101.619 26.92C101.32 27.016 101.011 27.064 100.691 27.064ZM96.8825 19.336V18.648H101.875V19.336H96.8825ZM107.729 27.064C106.886 27.064 106.139 26.8827 105.489 26.52C104.849 26.1573 104.342 25.656 103.969 25.016C103.606 24.376 103.425 23.6453 103.425 22.824C103.425 21.992 103.595 21.2613 103.937 20.632C104.289 19.992 104.769 19.4907 105.377 19.128C105.985 18.7653 106.667 18.584 107.425 18.584C108.182 18.584 108.859 18.76 109.457 19.112C110.065 19.464 110.539 19.96 110.881 20.6C111.233 21.2293 111.409 21.96 111.409 22.792C111.409 22.824 111.403 22.8613 111.393 22.904C111.393 22.936 111.393 22.9733 111.393 23.016H104.017V22.392H110.961L110.641 22.696C110.651 22.0453 110.513 21.464 110.225 20.952C109.947 20.4293 109.569 20.024 109.089 19.736C108.609 19.4373 108.054 19.288 107.425 19.288C106.806 19.288 106.251 19.4373 105.761 19.736C105.281 20.024 104.902 20.4293 104.625 20.952C104.347 21.464 104.209 22.0507 104.209 22.712V22.856C104.209 23.5387 104.358 24.1467 104.657 24.68C104.966 25.2027 105.387 25.6133 105.921 25.912C106.454 26.2 107.062 26.344 107.745 26.344C108.278 26.344 108.774 26.248 109.233 26.056C109.702 25.864 110.097 25.5707 110.417 25.176L110.881 25.704C110.518 26.152 110.059 26.4933 109.505 26.728C108.961 26.952 108.369 27.064 107.729 27.064ZM124.284 18.584C124.956 18.584 125.537 18.7173 126.028 18.984C126.529 19.24 126.918 19.6347 127.196 20.168C127.473 20.6907 127.612 21.3413 127.612 22.12V27H126.812V22.184C126.812 21.2453 126.582 20.5307 126.124 20.04C125.665 19.5493 125.025 19.304 124.204 19.304C123.574 19.304 123.03 19.4373 122.572 19.704C122.113 19.9707 121.761 20.344 121.516 20.824C121.27 21.304 121.148 21.88 121.148 22.552V27H120.348V22.184C120.348 21.2453 120.118 20.5307 119.66 20.04C119.201 19.5493 118.561 19.304 117.74 19.304C117.11 19.304 116.566 19.4373 116.108 19.704C115.649 19.9707 115.297 20.344 115.052 20.824C114.806 21.304 114.684 21.88 114.684 22.552V27H113.884V18.648H114.652V20.952L114.539 20.696C114.785 20.0453 115.196 19.5333 115.772 19.16C116.348 18.776 117.041 18.584 117.852 18.584C118.684 18.584 119.382 18.7973 119.948 19.224C120.524 19.64 120.886 20.264 121.036 21.096L120.764 20.984C120.988 20.2693 121.409 19.6933 122.028 19.256C122.646 18.808 123.398 18.584 124.284 18.584ZM136.179 27V25.096L136.147 24.808V21.672C136.147 20.8933 135.933 20.3013 135.507 19.896C135.091 19.4907 134.477 19.288 133.667 19.288C133.091 19.288 132.552 19.3893 132.051 19.592C131.56 19.784 131.139 20.0347 130.787 20.344L130.387 19.768C130.803 19.3947 131.304 19.1067 131.891 18.904C132.477 18.6907 133.091 18.584 133.731 18.584C134.765 18.584 135.56 18.8453 136.115 19.368C136.669 19.8907 136.947 20.6693 136.947 21.704V27H136.179ZM133.171 27.064C132.552 27.064 132.013 26.968 131.555 26.776C131.107 26.5733 130.76 26.2907 130.515 25.928C130.28 25.5653 130.163 25.1493 130.163 24.68C130.163 24.2533 130.259 23.8693 130.451 23.528C130.653 23.176 130.984 22.8933 131.443 22.68C131.901 22.456 132.515 22.344 133.283 22.344H136.355V22.968H133.299C132.435 22.968 131.827 23.128 131.475 23.448C131.133 23.768 130.963 24.168 130.963 24.648C130.963 25.1813 131.165 25.608 131.571 25.928C131.976 26.248 132.547 26.408 133.283 26.408C133.987 26.408 134.579 26.248 135.059 25.928C135.549 25.608 135.912 25.144 136.147 24.536L136.371 25.08C136.147 25.688 135.763 26.1733 135.219 26.536C134.685 26.888 134.003 27.064 133.171 27.064ZM142.355 27.064C141.662 27.064 141.011 26.9627 140.403 26.76C139.806 26.5573 139.342 26.3013 139.011 25.992L139.379 25.352C139.699 25.6293 140.126 25.8693 140.659 26.072C141.192 26.264 141.768 26.36 142.387 26.36C143.262 26.36 143.891 26.216 144.275 25.928C144.659 25.64 144.851 25.2613 144.851 24.792C144.851 24.4507 144.75 24.184 144.547 23.992C144.355 23.7893 144.094 23.6347 143.763 23.528C143.432 23.4213 143.07 23.336 142.675 23.272C142.28 23.1973 141.886 23.1173 141.491 23.032C141.096 22.9467 140.734 22.824 140.403 22.664C140.072 22.504 139.806 22.2853 139.603 22.008C139.411 21.72 139.315 21.3413 139.315 20.872C139.315 20.4453 139.432 20.0613 139.667 19.72C139.902 19.3787 140.254 19.1067 140.723 18.904C141.192 18.6907 141.779 18.584 142.483 18.584C143.006 18.584 143.528 18.6587 144.051 18.808C144.584 18.9573 145.016 19.1547 145.347 19.4L144.979 20.04C144.627 19.7733 144.232 19.5813 143.795 19.464C143.358 19.3467 142.915 19.288 142.467 19.288C141.656 19.288 141.059 19.4373 140.675 19.736C140.302 20.0347 140.115 20.408 140.115 20.856C140.115 21.208 140.211 21.4907 140.403 21.704C140.606 21.9067 140.872 22.0667 141.203 22.184C141.534 22.2907 141.896 22.3813 142.291 22.456C142.686 22.52 143.08 22.5947 143.475 22.68C143.87 22.7653 144.232 22.888 144.563 23.048C144.894 23.1973 145.155 23.4107 145.347 23.688C145.55 23.9547 145.651 24.3173 145.651 24.776C145.651 25.2347 145.523 25.6347 145.267 25.976C145.022 26.3173 144.654 26.584 144.163 26.776C143.672 26.968 143.07 27.064 142.355 27.064Z" fill="white"/>
</svg>
